<svg id="visual" viewBox="0 0 900 500" width="900" height="500" xmlns="http://www.w3.org/2000/svg" xmlns:xlink="http://www.w3.org/1999/xlink" version="1.1"><path d="M0 51L13.7 52.7C27.3 54.3 54.7 57.7 82 55.2C109.3 52.7 136.7 44.3 163.8 45.2C191 46 218 56 245.2 55.2C272.3 54.3 299.7 42.7 327 44.3C354.3 46 381.7 61 409 69.3C436.3 77.7 463.7 79.3 491 76C518.3 72.7 545.7 64.3 573 56C600.3 47.7 627.7 39.3 654.8 36C682 32.7 709 34.3 736.2 36C763.3 37.7 790.7 39.3 818 44.3C845.3 49.3 872.7 57.7 886.3 61.8L900 66L900 0L886.3 0C872.7 0 845.3 0 818 0C790.7 0 763.3 0 736.2 0C709 0 682 0 654.8 0C627.7 0 600.3 0 573 0C545.7 0 518.3 0 491 0C463.7 0 436.3 0 409 0C381.7 0 354.3 0 327 0C299.7 0 272.3 0 245.2 0C218 0 191 0 163.8 0C136.7 0 109.3 0 82 0C54.7 0 27.3 0 13.7 0L0 0Z" fill="#ea685f"></path><path d="M0 106L13.7 106.8C27.3 107.7 54.7 109.3 82 116C109.3 122.7 136.7 134.3 163.8 133.5C191 132.7 218 119.3 245.2 118.5C272.3 117.7 299.7 129.3 327 136.8C354.3 144.3 381.7 147.7 409 152.7C436.3 157.7 463.7 164.3 491 163.5C518.3 162.7 545.7 154.3 573 148.5C600.3 142.7 627.7 139.3 654.8 130.2C682 121 709 106 736.2 101C763.3 96 790.7 101 818 109.3C845.3 117.7 872.7 129.3 886.3 135.2L900 141L900 64L886.3 59.8C872.7 55.7 845.3 47.3 818 42.3C790.7 37.3 763.3 35.7 736.2 34C709 32.3 682 30.7 654.8 34C627.7 37.3 600.3 45.7 573 54C545.7 62.3 518.3 70.7 491 74C463.7 77.3 436.3 75.7 409 67.3C381.7 59 354.3 44 327 42.3C299.7 40.7 272.3 52.3 245.2 53.2C218 54 191 44 163.8 43.2C136.7 42.3 109.3 50.7 82 53.2C54.7 55.7 27.3 52.3 13.7 50.7L0 49Z" fill="#df483f"></path><path d="M0 321L13.7 308.5C27.3 296 54.7 271 82 276.8C109.3 282.7 136.7 319.3 163.8 331.8C191 344.3 218 332.7 245.2 312.7C272.3 292.7 299.7 264.3 327 261C354.3 257.7 381.7 279.3 409 298.5C436.3 317.7 463.7 334.3 491 343.5C518.3 352.7 545.7 354.3 573 351.8C600.3 349.3 627.7 342.7 654.8 313.5C682 284.3 709 232.7 736.2 223.5C763.3 214.3 790.7 247.7 818 254.3C845.3 261 872.7 241 886.3 231L900 221L900 139L886.3 133.2C872.7 127.3 845.3 115.7 818 107.3C790.7 99 763.3 94 736.2 99C709 104 682 119 654.8 128.2C627.7 137.3 600.3 140.7 573 146.5C545.7 152.3 518.3 160.7 491 161.5C463.7 162.3 436.3 155.7 409 150.7C381.7 145.7 354.3 142.3 327 134.8C299.7 127.3 272.3 115.7 245.2 116.5C218 117.3 191 130.7 163.8 131.5C136.7 132.3 109.3 120.7 82 114C54.7 107.3 27.3 105.7 13.7 104.8L0 104Z" fill="#d21d1d"></path><path d="M0 421L13.7 411.8C27.3 402.7 54.7 384.3 82 386C109.3 387.7 136.7 409.3 163.8 411.8C191 414.3 218 397.7 245.2 381.8C272.3 366 299.7 351 327 356C354.3 361 381.7 386 409 400.2C436.3 414.3 463.7 417.7 491 416.8C518.3 416 545.7 411 573 412.7C600.3 414.3 627.7 422.7 654.8 406.8C682 391 709 351 736.2 336C763.3 321 790.7 331 818 326C845.3 321 872.7 301 886.3 291L900 281L900 219L886.3 229C872.7 239 845.3 259 818 252.3C790.7 245.7 763.3 212.3 736.2 221.5C709 230.7 682 282.3 654.8 311.5C627.7 340.7 600.3 347.3 573 349.8C545.7 352.3 518.3 350.7 491 341.5C463.7 332.3 436.3 315.7 409 296.5C381.7 277.3 354.3 255.7 327 259C299.7 262.3 272.3 290.7 245.2 310.7C218 330.7 191 342.3 163.8 329.8C136.7 317.3 109.3 280.7 82 274.8C54.7 269 27.3 294 13.7 306.5L0 319Z" fill="#b6161d"></path><path d="M0 501L13.7 501C27.3 501 54.7 501 82 501C109.3 501 136.7 501 163.8 501C191 501 218 501 245.2 501C272.3 501 299.7 501 327 501C354.3 501 381.7 501 409 501C436.3 501 463.7 501 491 501C518.3 501 545.7 501 573 501C600.3 501 627.7 501 654.8 501C682 501 709 501 736.2 501C763.3 501 790.7 501 818 501C845.3 501 872.7 501 886.3 501L900 501L900 279L886.3 289C872.7 299 845.3 319 818 324C790.7 329 763.3 319 736.2 334C709 349 682 389 654.8 404.8C627.7 420.7 600.3 412.3 573 410.7C545.7 409 518.3 414 491 414.8C463.7 415.7 436.3 412.3 409 398.2C381.7 384 354.3 359 327 354C299.7 349 272.3 364 245.2 379.8C218 395.7 191 412.3 163.8 409.8C136.7 407.3 109.3 385.7 82 384C54.7 382.3 27.3 400.7 13.7 409.8L0 419Z" fill="#9b111c"></path></svg>