<svg id="visual" viewBox="0 0 900 600" width="900" height="600" xmlns="http://www.w3.org/2000/svg" xmlns:xlink="http://www.w3.org/1999/xlink" version="1.1"><path d="M0 121L15 117C30 113 60 105 90 96C120 87 150 77 180 74C210 71 240 75 270 75C300 75 330 71 360 65C390 59 420 51 450 55C480 59 510 75 540 85C570 95 600 99 630 98C660 97 690 91 720 84C750 77 780 69 810 72C840 75 870 89 885 96L900 103L900 0L885 0C870 0 840 0 810 0C780 0 750 0 720 0C690 0 660 0 630 0C600 0 570 0 540 0C510 0 480 0 450 0C420 0 390 0 360 0C330 0 300 0 270 0C240 0 210 0 180 0C150 0 120 0 90 0C60 0 30 0 15 0L0 0Z" fill="#c2e2ad"></path><path d="M0 139L15 142C30 145 60 151 90 148C120 145 150 133 180 125C210 117 240 113 270 108C300 103 330 97 360 92C390 87 420 83 450 88C480 93 510 107 540 121C570 135 600 149 630 151C660 153 690 143 720 131C750 119 780 105 810 107C840 109 870 127 885 136L900 145L900 101L885 94C870 87 840 73 810 70C780 67 750 75 720 82C690 89 660 95 630 96C600 97 570 93 540 83C510 73 480 57 450 53C420 49 390 57 360 63C330 69 300 73 270 73C240 73 210 69 180 72C150 75 120 85 90 94C60 103 30 111 15 115L0 119Z" fill="#badea3"></path><path d="M0 187L15 189C30 191 60 195 90 191C120 187 150 175 180 166C210 157 240 151 270 143C300 135 330 125 360 123C390 121 420 127 450 138C480 149 510 165 540 177C570 189 600 197 630 199C660 201 690 197 720 184C750 171 780 149 810 148C840 147 870 167 885 177L900 187L900 143L885 134C870 125 840 107 810 105C780 103 750 117 720 129C690 141 660 151 630 149C600 147 570 133 540 119C510 105 480 91 450 86C420 81 390 85 360 90C330 95 300 101 270 106C240 111 210 115 180 123C150 131 120 143 90 146C60 149 30 143 15 140L0 137Z" fill="#b3da98"></path><path d="M0 319L15 314C30 309 60 299 90 312C120 325 150 361 180 368C210 375 240 353 270 348C300 343 330 355 360 350C390 345 420 323 450 323C480 323 510 345 540 352C570 359 600 351 630 352C660 353 690 363 720 343C750 323 780 273 810 261C840 249 870 275 885 288L900 301L900 185L885 175C870 165 840 145 810 146C780 147 750 169 720 182C690 195 660 199 630 197C600 195 570 187 540 175C510 163 480 147 450 136C420 125 390 119 360 121C330 123 300 133 270 141C240 149 210 155 180 164C150 173 120 185 90 189C60 193 30 189 15 187L0 185Z" fill="#abd68e"></path><path d="M0 349L15 346C30 343 60 337 90 352C120 367 150 403 180 409C210 415 240 391 270 387C300 383 330 399 360 397C390 395 420 375 450 370C480 365 510 375 540 382C570 389 600 393 630 395C660 397 690 397 720 373C750 349 780 301 810 292C840 283 870 313 885 328L900 343L900 299L885 286C870 273 840 247 810 259C780 271 750 321 720 341C690 361 660 351 630 350C600 349 570 357 540 350C510 343 480 321 450 321C420 321 390 343 360 348C330 353 300 341 270 346C240 351 210 373 180 366C150 359 120 323 90 310C60 297 30 307 15 312L0 317Z" fill="#a0cc83"></path><path d="M0 397L15 394C30 391 60 385 90 401C120 417 150 455 180 462C210 469 240 445 270 437C300 429 330 437 360 431C390 425 420 405 450 406C480 407 510 429 540 442C570 455 600 459 630 461C660 463 690 463 720 435C750 407 780 351 810 338C840 325 870 355 885 370L900 385L900 341L885 326C870 311 840 281 810 290C780 299 750 347 720 371C690 395 660 395 630 393C600 391 570 387 540 380C510 373 480 363 450 368C420 373 390 393 360 395C330 397 300 381 270 385C240 389 210 413 180 407C150 401 120 365 90 350C60 335 30 341 15 344L0 347Z" fill="#93bd77"></path><path d="M0 499L15 511C30 523 60 547 90 558C120 569 150 567 180 559C210 551 240 537 270 535C300 533 330 543 360 547C390 551 420 549 450 543C480 537 510 527 540 527C570 527 600 537 630 542C660 547 690 547 720 538C750 529 780 511 810 513C840 515 870 537 885 548L900 559L900 383L885 368C870 353 840 323 810 336C780 349 750 405 720 433C690 461 660 461 630 459C600 457 570 453 540 440C510 427 480 405 450 404C420 403 390 423 360 429C330 435 300 427 270 435C240 443 210 467 180 460C150 453 120 415 90 399C60 383 30 389 15 392L0 395Z" fill="#87ae6b"></path><path d="M0 601L15 601C30 601 60 601 90 601C120 601 150 601 180 601C210 601 240 601 270 601C300 601 330 601 360 601C390 601 420 601 450 601C480 601 510 601 540 601C570 601 600 601 630 601C660 601 690 601 720 601C750 601 780 601 810 601C840 601 870 601 885 601L900 601L900 557L885 546C870 535 840 513 810 511C780 509 750 527 720 536C690 545 660 545 630 540C600 535 570 525 540 525C510 525 480 535 450 541C420 547 390 549 360 545C330 541 300 531 270 533C240 535 210 549 180 557C150 565 120 567 90 556C60 545 30 521 15 509L0 497Z" fill="#7a9f60"></path></svg>